<?xml version="1.0" standalone="no"?>
<!DOCTYPE svg PUBLIC "-//W3C//DTD SVG 20010904//EN"
 "http://www.w3.org/TR/2001/REC-SVG-20010904/DTD/svg10.dtd">
<svg version="1.0" xmlns="http://www.w3.org/2000/svg"
 width="512.000000pt" height="512.000000pt" viewBox="0 0 512.000000 512.000000"
 preserveAspectRatio="xMidYMid meet">
<metadata>
Created by potrace 1.14, written by Peter Selinger 2001-2017
</metadata>
<g transform="translate(0.000000,512.000000) scale(0.100000,-0.100000)"
fill="#000000" stroke="none">
<path d="M2379 5116 c-2 -2 -40 -6 -83 -10 -44 -4 -82 -9 -85 -11 -4 -2 -34
-7 -66 -10 -84 -10 -344 -77 -446 -115 -46 -18 -97 -37 -114 -43 -64 -25 -314
-155 -385 -201 -106 -69 -205 -141 -280 -205 -88 -74 -264 -252 -323 -326 -26
-33 -55 -68 -63 -78 -25 -31 -84 -114 -84 -119 0 -4 856 -862 874 -876 2 -2
18 25 36 60 63 123 145 234 250 338 198 199 418 317 695 376 92 19 355 27 431
13 27 -5 63 -11 79 -14 44 -5 160 -39 240 -69 85 -33 176 -82 274 -148 40 -28
87 -52 104 -55 80 -12 81 -12 435 340 183 183 344 350 357 373 51 84 24 149
-100 245 -367 284 -767 450 -1250 520 -72 10 -488 23 -496 15z"/>
<path d="M230 3613 c-48 -108 -95 -232 -117 -308 -34 -117 -53 -192 -59 -225
-3 -19 -7 -42 -9 -50 -33 -118 -53 -530 -34 -705 19 -178 68 -422 108 -535 55
-156 78 -211 137 -336 l24 -51 471 471 470 471 -8 50 c-10 66 -10 244 0 321
l8 60 -467 467 c-257 257 -470 467 -474 467 -3 0 -26 -44 -50 -97z"/>
<path d="M2525 3153 c-35 -9 -66 -36 -86 -74 -18 -36 -19 -63 -19 -518 0 -540
-2 -526 73 -575 l41 -26 624 0 623 0 -32 -57 c-52 -92 -116 -178 -195 -262
l-73 -78 419 -419 c231 -230 426 -418 432 -416 28 7 238 247 329 377 136 194
250 421 327 650 31 91 76 260 86 325 3 19 8 49 11 65 24 141 30 218 30 410 0
167 -9 325 -20 357 -2 7 -6 32 -9 54 -12 104 -44 159 -109 183 -29 11 -2410
14 -2452 4z"/>
<path d="M889 1565 c-239 -239 -436 -437 -438 -440 -4 -5 111 -160 170 -230
355 -417 886 -733 1409 -839 214 -43 337 -54 570 -51 184 3 298 13 430 40 14
2 37 7 51 9 156 26 476 141 657 238 123 65 341 205 342 219 0 8 -852 859 -861
859 -4 0 -38 -16 -77 -35 -78 -38 -220 -88 -302 -105 -102 -21 -144 -25 -280
-25 -123 0 -164 3 -270 21 -58 10 -232 70 -312 108 -252 120 -491 353 -618
604 -17 34 -32 62 -34 62 -1 0 -198 -196 -437 -435z"/>
</g>
</svg>
